<?xml version="1.0" encoding="UTF-8"?>
<!DOCTYPE svg PUBLIC "-//W3C//DTD SVG 1.1//EN" "http://www.w3.org/Graphics/SVG/1.1/DTD/svg11.dtd">
<!-- Creator: CorelDRAW X6 -->
<svg xmlns="http://www.w3.org/2000/svg" xml:space="preserve" width="228px" height="86px" version="1.1" style="shape-rendering:geometricPrecision; text-rendering:geometricPrecision; image-rendering:optimizeQuality; fill-rule:evenodd; clip-rule:evenodd"
viewBox="0 0 280 105"
 xmlns:xlink="http://www.w3.org/1999/xlink">
 <defs>
  <style type="text/css">
   <![CDATA[
    .fil0 {fill:#FEFEFE}
   ]]>
  </style>
 </defs>
 <g id="Warstwa_x0020_1">
  <metadata id="CorelCorpID_0Corel-Layer"/>
  <path class="fil0" d="M112 91l7 0 0 -18c3,6 7,12 10,18l7 0 0 -29 -7 0 0 17c-4,-5 -7,-11 -10,-17l-7 0 0 29z"/>
  <path class="fil0" d="M201 91l7 0 0 -18 10 18 7 0 0 -29 -7 0 0 18c-1,-3 -8,-14 -10,-18l-7 0 0 29z"/>
  <path class="fil0" d="M17 55l17 5c-3,4 -21,29 -23,33l5 4c2,-3 5,-7 7,-10 3,-5 21,-28 22,-31 -5,-2 -21,-7 -26,-8l-2 6z"/>
  <path class="fil0" d="M35 83c1,1 4,3 5,4 3,-3 7,-10 11,-14l12 16c3,4 9,13 12,16 2,-1 4,-3 5,-3 -2,-3 -5,-7 -7,-10 -3,-4 -5,-6 -7,-10 -2,-3 -5,-7 -7,-10 -2,-3 -5,-7 -7,-10 -1,1 -15,20 -16,22z"/>
  <polygon class="fil0" points="41,41 2,28 0,35 48,50 48,23 41,23 "/>
  <path class="fil0" d="M57 57c3,4 14,19 16,22 2,-1 4,-3 5,-4 -2,-3 -8,-11 -10,-15 13,-4 26,-8 38,-12l-2 -6c-2,0 -45,14 -48,15z"/>
  <path class="fil0" d="M55 1l0 49 26 -8 -2 -7c-4,1 -13,4 -17,5l0 -41 -7 0 0 1z"/>
  <polygon class="fil0" points="143,91 150,91 150,80 161,80 161,91 168,91 168,63 161,63 161,74 150,74 150,63 143,63 "/>
  <path class="fil0" d="M171 91c6,0 7,0 7,0 0,-1 1,-5 2,-6 0,0 0,0 9,0l2 6 7 0 -10 -29 -7 0 -10 29zm11 -12l5 0 -3 -10c-1,2 -2,7 -3,10z"/>
  <path class="fil0" d="M257 87c-1,-2 -2,-4 -3,-5 -3,2 -5,4 -10,3 -8,-2 -8,-13 -1,-16 5,-2 7,1 10,2l3 -5c-8,-9 -27,-3 -26,12 1,16 20,17 26,9z"/>
  <polygon class="fil0" points="89,91 107,91 107,85 96,85 96,80 105,80 105,74 96,74 96,69 107,69 107,63 89,63 "/>
  <polygon class="fil0" points="261,91 280,91 280,85 268,85 268,80 277,80 277,74 268,74 268,69 279,69 279,63 261,63 "/>
 </g>
</svg>
