<?xml version="1.0" encoding="UTF-8"?>
<!DOCTYPE svg PUBLIC "-//W3C//DTD SVG 1.1//EN" "http://www.w3.org/Graphics/SVG/1.1/DTD/svg11.dtd">
<!-- Creator: CorelDRAW X6 -->
<svg xmlns="http://www.w3.org/2000/svg" xml:space="preserve" width="124.762mm" height="35.6211mm" version="1.1" style="shape-rendering:geometricPrecision; text-rendering:geometricPrecision; image-rendering:optimizeQuality; fill-rule:evenodd; clip-rule:evenodd"
viewBox="0 0 10162 2901"
 xmlns:xlink="http://www.w3.org/1999/xlink">
 <defs>
  <style type="text/css">
   <![CDATA[
    .fil0 {fill:white;fill-rule:nonzero}
   ]]>
  </style>
 </defs>
 <g id="Warstwa_x0020_1">
  <metadata id="CorelCorpID_0Corel-Layer"/>
  <polygon class="fil0" points="1424,1870 1424,1694 1599,1694 1599,1538 1424,1538 1424,1362 1266,1362 1266,1538 1091,1538 1091,1694 1266,1694 1266,1870 "/>
  <path class="fil0" d="M2532 633l0 923c0,656 -531,1187 -1187,1187 -656,0 -1187,-531 -1187,-1187l0 -765 158 0 0 765c0,568 461,1029 1029,1029 568,0 1029,-461 1029,-1029l0 -923 -475 0 0 923c0,306 -248,554 -554,554 -306,0 -554,-248 -554,-554l0 -923 -158 0 0 923c0,393 319,712 712,712 393,0 712,-319 712,-712l0 -765 158 0 0 765c0,481 -390,870 -870,870 -481,0 -870,-390 -870,-870l0 -923 -475 0 0 923c0,743 602,1345 1345,1345 743,0 1345,-602 1345,-1345l0 -923 -158 0z"/>
  <polygon class="fil0" points="1899,317 791,317 791,475 1899,475 "/>
  <polygon class="fil0" points="1899,0 791,0 791,158 1899,158 "/>
  <polygon class="fil0" points="1599,872 1424,872 1424,696 1266,696 1266,872 1091,872 1091,1027 1266,1027 1266,1203 1424,1203 1424,1027 1599,1027 "/>
  <path class="fil0" d="M3471 1193l0 -557 179 0 0 555c0,163 67,243 209,243 145,0 207,-76 207,-240l0 -558 170 0 0 558c0,264 -146,394 -378,394 -253,0 -387,-139 -387,-395z"/>
  <path class="fil0" d="M4332 1237c0,-200 136,-343 335,-343 160,0 256,84 301,212l-164 51c-20,-73 -56,-121 -138,-121 -97,0 -159,83 -159,200l0 6c0,117 56,200 153,200 94,0 131,-48 150,-128l164 48c-46,136 -145,222 -312,222 -205,0 -330,-141 -330,-346z"/>
  <polygon class="fil0" points="5011,1445 5351,1048 5012,1048 5012,906 5555,906 5555,1031 5220,1428 5555,1428 5555,1570 5011,1570 "/>
  <path class="fil0" d="M6068 1175c-7,-97 -59,-146 -149,-146 -84,0 -146,53 -159,146l308 0zm-477 67c0,-205 138,-349 332,-349 201,0 320,134 320,343l0 59 -481 0c11,96 73,149 167,149 98,0 141,-46 162,-103l152 53c-46,107 -143,186 -316,186 -207,0 -336,-132 -336,-339z"/>
  <polygon class="fil0" points="6340,624 6516,624 6516,1570 6340,1570 "/>
  <path class="fil0" d="M6647 906l174 0 0 108c35,-77 100,-122 194,-122 145,0 231,97 231,280l0 398 -174 0 0 -388c0,-93 -35,-141 -117,-141 -83,0 -134,67 -134,191l0 337 -174 0 0 -663z"/>
  <path class="fil0" d="M7365 906l176 0 0 663 -176 0 0 -663zm-3 -267l181 0 0 170 -181 0 0 -170z"/>
  <path class="fil0" d="M8116 1175c-7,-97 -59,-146 -149,-146 -84,0 -146,53 -159,146l308 0zm-477 67c0,-205 138,-349 332,-349 201,0 320,134 320,343l0 59 -481 0c11,96 73,149 167,149 98,0 141,-46 162,-103l152 53c-46,107 -143,186 -316,186 -207,0 -336,-132 -336,-339z"/>
  <polygon class="fil0" points="3473,1884 4118,1884 4118,2037 3651,2037 3651,2289 4003,2289 4003,2442 3651,2442 3651,2817 3473,2817 "/>
  <path class="fil0" d="M4531 2543l0 -56c-38,22 -100,34 -155,48 -67,17 -118,39 -118,98 0,45 35,76 96,76 83,0 173,-42 177,-166zm-448 98c0,-149 111,-183 260,-215 122,-24 184,-30 188,-66l0 -7c0,-39 -35,-76 -125,-76 -90,0 -132,45 -136,104l0 10 -173 0c6,-150 124,-250 311,-250 180,0 290,79 290,259l0 417 -167 0 0 -90c-42,69 -118,107 -216,107 -142,0 -231,-77 -231,-193z"/>
  <path class="fil0" d="M4818 1871l170 0 0 401c34,-83 97,-131 194,-131 145,0 231,96 231,278l0 398 -174 0 0 -388c0,-93 -35,-141 -117,-141 -82,0 -134,67 -134,191l0 337 -170 0 0 -946z"/>
  <path class="fil0" d="M5532 2154l174 0 0 122c18,-76 67,-129 190,-129l14 0 0 167 -69 0c-105,0 -135,48 -135,163l0 340 -174 0 0 -663z"/>
  <path class="fil0" d="M6409 2422c-7,-97 -59,-146 -149,-146 -84,0 -146,53 -159,146l308 0zm-477 67c0,-205 138,-349 332,-349 201,0 320,134 320,343l0 59 -481 0c11,96 73,149 167,149 98,0 141,-46 162,-103l152 53c-46,107 -143,186 -316,186 -207,0 -336,-132 -336,-339z"/>
  <path class="fil0" d="M6681 2154l174 0 0 108c35,-77 100,-122 194,-122 145,0 231,97 231,280l0 398 -174 0 0 -388c0,-93 -35,-141 -117,-141 -83,0 -134,67 -134,191l0 337 -174 0 0 -663z"/>
  <path class="fil0" d="M7397 1871l170 0 0 401c34,-83 97,-131 194,-131 145,0 231,96 231,278l0 398 -174 0 0 -388c0,-93 -35,-141 -117,-141 -82,0 -134,67 -134,191l0 337 -170 0 0 -946z"/>
  <path class="fil0" d="M8556 2422c-7,-97 -59,-146 -149,-146 -84,0 -146,53 -159,146l308 0zm-477 67c0,-205 138,-349 332,-349 201,0 320,134 320,343l0 59 -481 0c11,96 73,149 167,149 98,0 141,-46 162,-103l152 53c-46,107 -143,186 -316,186 -207,0 -336,-132 -336,-339z"/>
  <path class="fil0" d="M8828 2154l176 0 0 663 -176 0 0 -663zm-3 -267l181 0 0 170 -181 0 0 -170z"/>
  <path class="fil0" d="M9184 2642l0 -347 -94 0 0 -141 94 0 0 -125 170 -96 0 221 131 0 0 141 -132 0 0 330c0,32 15,46 48,48l77 0 0 145 -135 0c-128,-7 -156,-66 -159,-176z"/>
  <path class="fil0" d="M9996 2543l0 -56c-38,22 -100,34 -155,48 -67,17 -118,39 -118,98 0,45 35,76 96,76 83,0 173,-42 177,-166zm-448 98c0,-149 111,-183 260,-215 122,-24 184,-30 188,-66l0 -7c0,-39 -35,-76 -125,-76 -90,0 -132,45 -136,104l0 10 -173 0c6,-150 124,-250 311,-250 180,0 290,79 290,259l0 417 -167 0 0 -90c-42,69 -118,107 -216,107 -142,0 -231,-77 -231,-193z"/>
 </g>
</svg>
