<svg xmlns="http://www.w3.org/2000/svg" id="prefix__PGLogotyp" width="154" height="111.473"><defs><style>.prefix__cls-1{fill:#fff}</style></defs><path id="prefix__Path_98" d="M137.334 89.4h4.125l-6.777-8.937 6.286-7.562h-3.929l-4.812 6.286h-.982V72.9H128.2v16.5h3.045v-7.268h1.08z" class="prefix__cls-1" data-name="Path 98" transform="translate(-2.289 -1.302)"/><path id="prefix__Path_99" d="M7.563 77.32a1.459 1.459 0 00-.589-1.277 2.412 2.412 0 00-1.474-.491H3.045v5.107H5.6a3.137 3.137 0 001.375-.295 1.188 1.188 0 00.589-1.179zM5.5 72.9a7.476 7.476 0 012.063.295 4.1 4.1 0 011.571.884 4.777 4.777 0 011.08 1.375 4.136 4.136 0 01.393 1.964v1.866a3.363 3.363 0 01-.393 1.768 3.42 3.42 0 01-1.08 1.277 4.726 4.726 0 01-1.571.786 6.333 6.333 0 01-1.964.295H3.045v6.09H0V72.9z" class="prefix__cls-1" data-name="Path 99" transform="translate(0 -1.302)"/><path id="prefix__Path_100" d="M23.114 78a2.615 2.615 0 00-.295-1.179 6.354 6.354 0 00-.786-.884 3.63 3.63 0 00-1.08-.491 5.748 5.748 0 00-1.277-.2h-.393a5.748 5.748 0 00-1.277.2 6.007 6.007 0 00-1.179.491 2.319 2.319 0 00-.786.884A2.094 2.094 0 0015.748 78v6.286a2.094 2.094 0 00.295 1.179 6.354 6.354 0 00.786.884 3.631 3.631 0 001.08.491 5.8 5.8 0 001.375.2h.393a4.976 4.976 0 001.277-.2 3.631 3.631 0 001.08-.491 2.513 2.513 0 001.08-2.062zm-1.08-5.009a5.2 5.2 0 012.063 1.08 6.013 6.013 0 011.473 1.67A4.3 4.3 0 0126.159 78v6.286a5.934 5.934 0 01-.491 2.357 4.659 4.659 0 01-1.375 1.67 5.028 5.028 0 01-2.062.982 10.662 10.662 0 01-2.455.393h-.393a7.324 7.324 0 01-2.554-.393 6.687 6.687 0 01-2.063-.982 4.492 4.492 0 01-1.375-1.67 4.625 4.625 0 01-.491-2.357V78a5.456 5.456 0 01.491-2.259 4.775 4.775 0 011.473-1.67 6.86 6.86 0 012.063-1.08 9.874 9.874 0 012.455-.393h.393a9.933 9.933 0 012.259.393" class="prefix__cls-1" data-name="Path 100" transform="translate(-.23 -1.296)"/><path id="prefix__Path_101" d="M31.845 72.9v13.848h6.875V89.4H28.8V72.9z" class="prefix__cls-1" data-name="Path 101" transform="translate(-.514 -1.302)"/><path id="prefix__Rectangle_8" d="M0 0h3.045v16.598H0z" class="prefix__cls-1" data-name="Rectangle 8" transform="translate(40.366 71.598)"/><path id="prefix__Path_102" d="M46.4 75.552V72.9h12.866v2.652h-5.009V89.4h-2.946V75.552z" class="prefix__cls-1" data-name="Path 102" transform="translate(-.829 -1.302)"/><path id="prefix__Path_103" d="M64.645 82.132v4.616h6.777V89.4H61.6V72.9h9.33v2.652h-6.285v4.027h5.3v2.554z" class="prefix__cls-1" data-name="Path 103" transform="translate(-1.1 -1.302)"/><path id="prefix__Path_104" d="M79.984 75.354a5.749 5.749 0 00-1.277.2 3.631 3.631 0 00-1.08.491 2.139 2.139 0 00-.687.884 2.1 2.1 0 00-.295 1.179v6.286a2.144 2.144 0 00.982 2.063 4.19 4.19 0 002.357.688 8.372 8.372 0 002.259-.295 4.451 4.451 0 001.866-1.08l1.277 2.259a7.507 7.507 0 01-2.554 1.471 9.307 9.307 0 01-2.946.393 6.449 6.449 0 01-2.456-.393 5.268 5.268 0 01-1.964-.982 5.691 5.691 0 01-1.375-1.67 5.934 5.934 0 01-.491-2.357V78.2a5.456 5.456 0 01.491-2.259 3.837 3.837 0 011.375-1.67 7.675 7.675 0 011.964-1.08 9.874 9.874 0 012.455-.393 9.549 9.549 0 011.768.1 5.63 5.63 0 011.375.393 7.326 7.326 0 011.179.687 10.4 10.4 0 011.179.982l-1.571 2.063a6.452 6.452 0 00-1.67-1.179 3.718 3.718 0 00-2.161-.491" class="prefix__cls-1" data-name="Path 104" transform="translate(-1.314 -1.3)"/><path id="prefix__Path_105" d="M97.821 72.9h3.045v16.5h-3.045v-6.679h-6.776V89.4H88V72.9h3.045v7.17h6.777z" class="prefix__cls-1" data-name="Path 105" transform="translate(-1.571 -1.302)"/><path id="prefix__Path_106" d="M115.3 72.9h2.652v16.5h-4.125l-6.777-13.062V89.4h-2.65V72.9h3.929l6.971 13.357z" class="prefix__cls-1" data-name="Path 106" transform="translate(-1.864 -1.302)"/><path id="prefix__Rectangle_9" d="M0 0h3.045v16.598H0z" class="prefix__cls-1" data-name="Rectangle 9" transform="translate(119.527 71.598)"/><path id="prefix__Path_107" d="M151.527 83.113l-2.161-7.17-2.161 7.17zm-.295-10.313l5.3 16.7h-3.143l-1.179-3.929h-5.79l-1.179 3.929H142l5.5-16.7z" class="prefix__cls-1" data-name="Path 107" transform="translate(-2.536 -1.3)"/><path id="prefix__Path_108" d="M36.539 9.688L33.2 12.045l1.375 1.866 2.652-1.964h3.045l.982-7.17L34.477 3.5l-.687 3.732 2.259.393.295-1.473 2.357.491-.393 3.045z" class="prefix__cls-1" data-name="Path 108" transform="translate(-.593 -.062)"/><path id="prefix__Path_109" d="M119.427 11.946l2.652 1.964 1.375-1.866-3.241-2.357h-1.866l-.393-3.045 2.455-.491.2 1.473 2.259-.393-.593-3.731-6.875 1.277.982 7.17z" class="prefix__cls-1" data-name="Path 109" transform="translate(-2.061 -.062)"/><path id="prefix__Path_110" d="M135.636 44.884h-2.259v2.259h7.464L143 50.188l-5.4 10.705h-7.857l1.67-3.339h3.241l3.536-7.17h-8.741V39.777l-9.92-7.464 2.161-2.848-1.866-1.375-3.339 4.42v2.554l-11.2 2.455-3.437-.982v-1.966h-2.257V49.4L77 58.045 54.413 49.4V32.214h-2.259v1.964l-3.634 1.08h-10.9v-2.847l-3.339-4.42-1.866 1.375 2.161 2.848-9.92 7.563v10.607h-8.743l3.536 7.17h3.241l1.67 3.339H16.5l-5.3-10.607 2.161-3.045h7.464v-2.259h-2.261V35.75l4.321-3.241v-4.714l4.515-3.438-1.277-1.768 6.777-5.107 7.959 4.318v8.45l8.841 1.277 1.373-4.027h3.536V8.643h45.179v21.214h3.536l1.473 4.321 8.741-4.125V21.8l7.955-4.321 6.777 5.107-1.375 1.768 4.518 3.438v4.714l4.321 3.241v9.134zM49.5 17.384l1.473-4.42h1.179v8.054H49.6l-6.58 4.911v-5.3zm-6.384 10.9zm9.134-2.946H49.5l-1.277 3.732-4.616-.589 6.875-5.107h1.768zm58.732 3.339l-5.009 2.357L104.8 27.6h-2.75v-4.323h1.768zm-7.759-15.714l1.473 4.42 6.384 3.143v5.3l-6.58-4.906h-2.554v-8.054h1.277zM143.2 25.536l-1.377 1.864 3.634 2.75 3.143-4.125v-1.864l-6.384-4.714-5.009 6.482v3.536l4.223 3.143v4.518l-7.857-5.893v-4.715l-4.714-3.536 1.375-1.768-6.679-5.009 2.063-1.08 5.893 4.42-1.375 1.768 4.223 3.241 1.375-1.866-4.223-3.143 1.375-1.768-5.107-3.83v-2.652l6.286 4.714-1.375 1.768 3.438 2.554 1.375-1.866-3.437-2.554 1.375-1.768-7.761-5.795V5.795l9.036 6.777-1.375 1.768 2.554 1.964 1.375-1.866-2.554-1.964 1.375-1.768-10.214-7.76V0h-2.259v2.455l-3.634.688.393 2.259 3.241-.589v7.857l-6.187 3.339-2.848-2.161-1.375 1.866 1.964 1.473-3.732 2.063-6.973-3.437-1.767-5.108h-2.85V6.384h-49.6v4.321H49.4l-1.768 5.107-6.969 3.438-3.733-2.062 1.964-1.473-1.374-1.867-2.848 2.161-6.188-3.339V4.813l3.241.589.393-2.259-3.634-.687V0h-2.259v2.946L16.011 10.8l1.375 1.768-2.554 1.964 1.375 1.868 2.554-1.964-1.375-1.766 9.036-6.777v2.652l-7.759 5.795 1.375 1.768-3.438 2.553 1.375 1.866 3.438-2.554-1.375-1.768 6.286-4.714v2.652l-5.107 3.83 1.375 1.768-4.223 3.143 1.375 1.67 4.223-3.241-1.277-1.67 5.893-4.42 2.063 1.08-6.679 5.009 1.375 1.768-4.714 3.536v4.714l-7.858 5.893v-4.518l4.223-3.143V25.83l-5.009-6.482L5.6 24.063v1.866l3.143 4.125 3.634-2.75-1.277-1.768-1.866 1.375-1.277-1.768 3.536-2.652 3.143 4.125v1.768l-4.223 3.143v6.482l1.866 2.455 4.027-3.045v7.563H12.18l-3.634 5.107 6.483 13.161h11.785v-2.357l-2.75-5.6h-3.241l-1.277-2.554h7.268V40.955l2.455-1.768L38.6 43.9v6.286l-2.161 3.144 2.061 4.224h3.241l1.67 3.339h-7.856l-4.027-8.152 1.964-2.848v-5.009h-4.321v2.259h2.063v2.063l-2.357 3.339 5.3 10.607h11.789v-2.357l-2.75-5.6h-3.241l-.884-1.768 1.866-2.652V42.33l-9.527-4.91 3.929-2.946v2.848h13.652l3.241-.982v14.339L77.1 60.205l24.848-9.527V38.795l3.438.982 13.554-2.946V34.67l3.929 2.946-9.527 4.911v8.446l1.866 2.652-.884 1.768h-3.241l-2.75 5.6v2.357h11.786l5.3-10.607-2.355-3.343v-2.061h2.062V45.08h-4.321v5.009l1.964 2.848-4.027 8.152h-7.857l1.67-3.339h3.245l2.063-4.223-2.263-3.143V44.1l9.33-4.714 2.455 1.768v11.784h7.268l-1.277 2.554h-3.241l-2.75 5.6v2.357h11.786l6.482-13.161-3.634-5.107h-4.125v-7.565l4.027 3.045 1.866-2.455v-6.483l-4.223-3.143v-1.768l3.143-4.125 3.536 2.652-1.277 1.67z" class="prefix__cls-1" data-name="Path 110" transform="translate(-.1)"/><path id="prefix__Path_111" d="M69.941 21.195a1.2 1.2 0 00-.884-.295H66.7v3.045h2.357a1.85 1.85 0 00.786-.2.658.658 0 00.393-.687V21.98a.658.658 0 00-.295-.786" class="prefix__cls-1" data-name="Path 111" transform="translate(-1.191 -.373)"/><path id="prefix__Path_112" d="M92.861 21.413v2.063h-8.349v-2.063l-.393-3.437 2.063 1.375-.491 1.964h2.455l-.786-1.964 1.375-2.259 1.375 2.259-.786 1.964h2.456l-.491-1.964 2.063-1.375zm-.589 10.116l-2.652-.295.393 2.652h-2.554l.393-2.652-2.652.295v-2.554l2.652.393-.393-2.652h2.554l-.393 2.554 2.652-.295v2.554zm0 10.313l-2.652-.393.393 2.652h-2.554l.393-2.652-2.652.295v-2.555l2.652.393-.393-2.554h2.554l-.393 2.554 2.652-.295v2.554zM78.816 44.3h-1.473V18.957h1.473zm-6.875-21.316a3.531 3.531 0 01-.2 1.08 2.648 2.648 0 01-.687.786 3.072 3.072 0 01-.982.491 4.221 4.221 0 01-1.179.2h-2.354v3.536h-1.768V19.35H68.9a4.93 4.93 0 011.179.2 3.072 3.072 0 01.982.491 1.527 1.527 0 01.589.786 2.127 2.127 0 01.2 1.179v.982zm-.295 18.955a3.981 3.981 0 01-.884.491c-.295.1-.589.295-.884.393a2.868 2.868 0 01-.884.2 3.028 3.028 0 01-.982.1 5.944 5.944 0 01-1.473-.2 2.24 2.24 0 01-1.179-.589 3.845 3.845 0 01-.786-.982 3.137 3.137 0 01-.295-1.375v-3.734a3.137 3.137 0 01.295-1.375 3.845 3.845 0 01.786-.982 3.319 3.319 0 011.179-.589 7.581 7.581 0 011.473-.2 4.758 4.758 0 011.768.295 3.7 3.7 0 011.473.884l-.687 1.277a7.326 7.326 0 00-1.179-.688 3.024 3.024 0 00-1.277-.295 2.163 2.163 0 00-.786.1 4.787 4.787 0 00-.687.295c-.2.1-.295.295-.491.491a1.42 1.42 0 00-.2.688v3.732a1.42 1.42 0 00.2.688 1.184 1.184 0 00.491.491 4.788 4.788 0 00.688.295 3.585 3.585 0 001.67 0 3.489 3.489 0 00.884-.393V38.8H68.5v-1.28h3.241v4.42zM57.7 11.1v36.83l20.33 7.857 20.33-7.857V11.1z" class="prefix__cls-1" data-name="Path 112" transform="translate(-1.03 -.198)"/><path id="prefix__Path_113" d="M111.834 112.9h4.125l-6.777-9.036 6.286-7.562h-4.027l-4.714 6.384h-.982V96.3H102.7v16.6h3.045v-7.366h1.08z" class="prefix__cls-1" data-name="Path 113" transform="translate(-1.834 -1.72)"/><path id="prefix__Path_114" d="M31.984 103.763h6.188v7.366c-.491.295-1.08.589-1.473.884a9.91 9.91 0 01-1.473.687 8.182 8.182 0 01-1.473.393 8.986 8.986 0 01-1.67.1 10.7 10.7 0 01-2.554-.295 6.687 6.687 0 01-2.062-.982 3.837 3.837 0 01-1.375-1.67 5.934 5.934 0 01-.491-2.357V101.6a5.934 5.934 0 01.491-2.357 4.659 4.659 0 011.375-1.67 5.028 5.028 0 012.063-.982 9.874 9.874 0 012.455-.393 10.4 10.4 0 013.045.491 6.931 6.931 0 012.554 1.571l-1.375 2.161a7.065 7.065 0 00-2.062-1.179 6.089 6.089 0 00-2.259-.393 4.976 4.976 0 00-1.277.2 3.631 3.631 0 00-1.08.491 2.319 2.319 0 00-.786.884 2.1 2.1 0 00-.295 1.179v6.286a2.719 2.719 0 00.295 1.277 3.182 3.182 0 00.786.884 3.631 3.631 0 001.08.491 5.8 5.8 0 001.375.2 7.939 7.939 0 001.571-.1 4.63 4.63 0 001.473-.589v-3.536h-3.144v-2.75z" class="prefix__cls-1" data-name="Path 114" transform="translate(-.457 -1.718)"/><path id="prefix__Path_115" d="M49.843 101.7a3.663 3.663 0 00-.2-1.179 5.4 5.4 0 00-.687-.884 3.631 3.631 0 00-1.08-.491 5.6 5.6 0 00-1.277-.1h-2.453v11.2h2.259a6.484 6.484 0 001.375-.1 3.631 3.631 0 001.08-.491 2.319 2.319 0 00.786-.884 2.457 2.457 0 00.295-1.277V101.7zM46.6 96.3a10.7 10.7 0 012.554.295 4.133 4.133 0 011.964.982 3.642 3.642 0 011.277 1.67 5.934 5.934 0 01.491 2.357v5.796a5.582 5.582 0 01-.491 2.357 3.837 3.837 0 01-1.375 1.67 6.687 6.687 0 01-2.062.982 10.706 10.706 0 01-2.554.295H41.2V96.3z" class="prefix__cls-1" data-name="Path 115" transform="translate(-.736 -1.72)"/><path id="prefix__Path_116" d="M63.727 106.512l-2.161-7.17-2.161 7.17zM63.432 96.2l5.3 16.7h-3.139l-1.179-3.929H58.62l-1.179 3.929H54.2l5.5-16.7z" class="prefix__cls-1" data-name="Path 116" transform="translate(-.968 -1.718)"/><path id="prefix__Path_117" d="M82.1 96.3h2.75v16.6h-4.221l-6.777-13.064V112.9H71.2V96.3h3.929l6.971 13.455z" class="prefix__cls-1" data-name="Path 117" transform="translate(-1.271 -1.72)"/><path id="prefix__Path_118" d="M94.67 103.068c.884.2 1.571.491 2.259.688a5.355 5.355 0 011.67.982 4.776 4.776 0 011.08 1.375 5.811 5.811 0 01.393 1.964 5 5 0 01-.491 2.161 4.624 4.624 0 01-1.277 1.473 6 6 0 01-1.964.884 9.117 9.117 0 01-2.357.295 13.31 13.31 0 01-1.964-.2 5.364 5.364 0 01-1.768-.589 8.482 8.482 0 01-1.571-.982 4.807 4.807 0 01-1.179-1.277l1.964-1.866a6.354 6.354 0 00.786.884 4.056 4.056 0 001.08.687 6.008 6.008 0 001.179.491 4.93 4.93 0 001.179.2 4.782 4.782 0 001.179-.1 3.518 3.518 0 001.08-.393 2.648 2.648 0 00.786-.687 1.659 1.659 0 00.295-.982 1.477 1.477 0 00-.393-1.08 3.527 3.527 0 00-.982-.687c-.393-.2-.884-.295-1.277-.491a4.862 4.862 0 01-1.277-.393 10.045 10.045 0 01-2.062-.786 8.482 8.482 0 01-1.571-.982 3.523 3.523 0 01-.982-1.375 5.316 5.316 0 01-.295-1.866 4.565 4.565 0 01.491-2.062 4.624 4.624 0 011.277-1.473 4.471 4.471 0 011.866-.786 8.6 8.6 0 012.357-.295 8.143 8.143 0 013.143.589 13.524 13.524 0 012.357 1.375l-1.67 2.259a1.762 1.762 0 00-.687-.491 3.072 3.072 0 00-.982-.491 3.518 3.518 0 00-1.08-.393 4.029 4.029 0 00-1.08-.1 3.683 3.683 0 00-1.08.1c-.393.1-.687.2-.982.295a4.271 4.271 0 00-.687.589 1.784 1.784 0 000 1.964 2.139 2.139 0 00.884.687 7.126 7.126 0 001.179.491 5.536 5.536 0 001.179.393" class="prefix__cls-1" data-name="Path 118" transform="translate(-1.562 -1.711)"/><path id="prefix__Path_119" d="M126.027 106.512l-2.161-7.17-2.161 7.17zm-.295-10.312l5.3 16.7h-3.143l-1.179-3.929h-5.79l-1.179 3.929H116.5l5.5-16.7z" class="prefix__cls-1" data-name="Path 119" transform="translate(-2.08 -1.718)"/><path id="prefix__Path_120" d="M78.88 93.1h2.946l-2.259 4.027H77.8z" class="prefix__cls-1" data-name="Path 120" transform="translate(-1.389 -1.662)"/></svg>