<svg version="1.2" xmlns="http://www.w3.org/2000/svg" viewBox="0 0 504 147" width="504" height="147">
	<title>FarU-Logo-Niebieski_RGB-ai</title>
	<style>
		.s0 { fill: #0e49e8 } 
	</style>
	<g id="Warstwa 1">
		<g id="&lt;Group&gt;">
			<g id="&lt;Group&gt;">
				<path id="&lt;Path&gt;" class="s0" d="m63.7 93.6v-8.7h-8.6v-7.6h8.6v-8.7h7.8v8.7h8.6v7.6h-8.6v8.7z"/>
				<path id="&lt;Path&gt;" class="s0" d="m133.6 32.9v45.3c0 36.4-29.5 66-66 66c-36.5 0-66-29.6-66-66v-45.3h23.3v45.3c0 23.6 19.1 42.7 42.7 42.7c23.6 0 42.7-19.1 42.7-42.7v-37.6h-7.7v37.6c0 19.3-15.7 34.9-35 34.9c-19.3 0-34.9-15.6-34.9-34.9v-45.3h7.7v45.3c0 15 12.2 27.2 27.2 27.2c15 0 27.2-12.2 27.2-27.2v-45.3h23.3v45.3c0 27.9-22.6 50.5-50.5 50.5c-27.9 0-50.5-22.6-50.5-50.5v-37.6h-7.8v37.6c0 32.2 26.1 58.2 58.3 58.2c32.2 0 58.3-26 58.3-58.2v-45.3z"/>
				<path id="&lt;Path&gt;" class="s0" d="m94.8 25.1h-54.4v-7.8h54.4z"/>
				<path id="&lt;Path&gt;" class="s0" d="m94.8 9.6h-54.4v-7.8h54.4z"/>
				<path id="&lt;Path&gt;" class="s0" d="m80.1 52.2h-8.6v8.7h-7.8v-8.7h-8.6v-7.6h8.6v-8.7h7.8v8.7h8.6z"/>
			</g>
			<g id="&lt;Group&gt;">
				<path id="&lt;Compound Path&gt;" class="s0" d="m172 60.3v-27.3h8.7v27.3c0 8 3.4 11.9 10.3 11.9c7.1 0 10.2-3.7 10.2-11.8v-27.4h8.3v27.4c0 13-7.2 19.3-18.5 19.3c-12.5 0-19-6.8-19-19.4z"/>
				<path id="&lt;Compound Path&gt;" class="s0" d="m214.2 62.5c0-9.8 6.7-16.8 16.4-16.8c7.9 0 12.6 4.1 14.8 10.4l-8.1 2.5c-0.9-3.6-2.7-6-6.7-6c-4.8 0-7.8 4.1-7.8 9.8v0.3c0 5.7 2.7 9.8 7.5 9.8c4.6 0 6.4-2.4 7.4-6.3l8 2.4c-2.2 6.7-7.1 10.9-15.3 10.9c-10 0-16.2-6.9-16.2-17z"/>
				<path id="&lt;Compound Path&gt;" class="s0" d="m247.5 72.7l16.7-19.5h-16.6v-6.9h26.6v6.1l-16.4 19.5h16.4v6.9h-26.7z"/>
				<path id="&lt;Compound Path&gt;" fill-rule="evenodd" class="s0" d="m276 62.8c0-10.1 6.8-17.1 16.3-17.1c9.9 0 15.8 6.5 15.8 16.8v2.9h-23.6c0.5 4.7 3.5 7.3 8.2 7.3c4.8 0 6.9-2.3 7.9-5l7.5 2.6c-2.3 5.2-7.1 9.1-15.6 9.1c-10.1 0-16.5-6.5-16.5-16.6zm23.4-3.3c-0.3-4.8-2.9-7.2-7.3-7.2c-4.1 0-7.2 2.6-7.8 7.2z"/>
				<path id="&lt;Compound Path&gt;" class="s0" d="m312.8 32.4h8.6v46.4h-8.6z"/>
				<path id="&lt;Compound Path&gt;" class="s0" d="m327.9 46.3h8.5v5.3c1.7-3.8 4.9-6 9.5-6c7.1 0 11.3 4.7 11.3 13.7v19.5h-8.5v-19c0-4.6-1.7-6.9-5.7-6.9c-4.1 0-6.6 3.3-6.6 9.4v16.5h-8.5z"/>
				<path id="&lt;Compound Path&gt;" class="s0" d="m363 33.2h8.9v8.3h-8.9zm0.1 13.1h8.6v32.6h-8.6z"/>
				<path id="&lt;Compound Path&gt;" fill-rule="evenodd" class="s0" d="m376.6 62.8c0-10.1 6.7-17.1 16.3-17.1c9.8 0 15.7 6.5 15.7 16.8v2.9h-23.6c0.5 4.7 3.6 7.3 8.2 7.3c4.8 0 6.9-2.3 7.9-5l7.5 2.6c-2.3 5.2-7.1 9.1-15.5 9.1c-10.2 0-16.5-6.5-16.5-16.6zm23.4-3.3c-0.4-4.8-2.9-7.2-7.4-7.2c-4.1 0-7.1 2.6-7.8 7.2z"/>
				<path id="&lt;Compound Path&gt;" class="s0" d="m172.1 94.3h31.6v7.5h-22.9v12.3h17.3v7.6h-17.3v18.4h-8.7z"/>
				<path id="&lt;Compound Path&gt;" fill-rule="evenodd" class="s0" d="m202 131.5c0-7.4 5.4-9 12.8-10.6c6-1.2 9-1.5 9.2-3.2v-0.4c0-1.9-1.7-3.7-6.1-3.7c-4.4 0-6.5 2.2-6.7 5.1v0.5h-8.5c0.3-7.4 6.1-12.3 15.2-12.3c8.9 0 14.3 3.9 14.3 12.7v20.5h-8.3v-4.4c-2 3.3-5.8 5.2-10.6 5.2c-7 0-11.3-3.8-11.3-9.4zm22-4.9v-2.7c-1.9 1.1-4.9 1.6-7.6 2.3c-3.3 0.8-5.8 1.9-5.8 4.8c0 2.2 1.7 3.8 4.7 3.8c4.1 0 8.5-2.1 8.7-8.2z"/>
				<path id="&lt;Compound Path&gt;" class="s0" d="m238.1 93.6h8.3v19.7c1.7-4.1 4.8-6.4 9.6-6.4c7.1 0 11.3 4.7 11.3 13.7v19.5h-8.6v-19.1c0-4.5-1.7-6.9-5.7-6.9c-4 0-6.6 3.3-6.6 9.4v16.6h-8.3z"/>
				<path id="&lt;Compound Path&gt;" class="s0" d="m273.1 107.5h8.6v6c0.9-3.7 3.3-6.3 9.3-6.3h0.7v8.2h-3.4c-5.2 0-6.6 2.3-6.6 8v16.7h-8.6z"/>
				<path id="&lt;Compound Path&gt;" fill-rule="evenodd" class="s0" d="m292.8 124c0-10.1 6.8-17.1 16.3-17.1c9.9 0 15.7 6.5 15.7 16.8v2.9h-23.6c0.6 4.7 3.6 7.3 8.2 7.3c4.9 0 6.9-2.2 8-5l7.4 2.6c-2.3 5.3-7 9.1-15.5 9.1c-10.1 0-16.5-6.5-16.5-16.6zm23.4-3.3c-0.4-4.8-2.9-7.2-7.3-7.2c-4.2 0-7.2 2.6-7.8 7.2z"/>
				<path id="&lt;Compound Path&gt;" class="s0" d="m329.5 107.5h8.6v5.3c1.7-3.8 4.9-6 9.5-6c7.1 0 11.3 4.8 11.3 13.8v19.5h-8.6v-19.1c0-4.5-1.7-6.9-5.7-6.9c-4.1 0-6.5 3.3-6.5 9.4v16.6h-8.6z"/>
				<path id="&lt;Compound Path&gt;" class="s0" d="m364.7 93.6h8.3v19.7c1.7-4.1 4.8-6.4 9.6-6.4c7.1 0 11.3 4.7 11.3 13.7v19.5h-8.6v-19.1c0-4.5-1.7-6.9-5.7-6.9c-4 0-6.6 3.3-6.6 9.4v16.6h-8.3z"/>
				<path id="&lt;Compound Path&gt;" fill-rule="evenodd" class="s0" d="m398.2 124c0-10.1 6.7-17.1 16.2-17.1c9.9 0 15.8 6.5 15.8 16.8v2.9h-23.6c0.5 4.7 3.6 7.3 8.2 7.3c4.8 0 6.9-2.2 7.9-5l7.5 2.6c-2.3 5.3-7.1 9.1-15.5 9.1c-10.2 0-16.5-6.5-16.5-16.6zm23.4-3.3c-0.4-4.8-2.9-7.2-7.4-7.2c-4.1 0-7.1 2.6-7.8 7.2z"/>
				<path id="&lt;Compound Path&gt;" class="s0" d="m434.8 94.4h8.9v8.4h-8.9zm0.1 13.1h8.7v32.5h-8.7z"/>
				<path id="&lt;Compound Path&gt;" class="s0" d="m452.4 131.5v-17.1h-4.6v-6.9h4.6v-6.1l8.3-4.7v10.8h6.5v6.9h-6.5v16.2c0 1.6 0.7 2.3 2.3 2.4h3.8v7.1h-6.6c-6.3-0.4-7.7-3.3-7.8-8.6z"/>
				<path id="&lt;Compound Path&gt;" fill-rule="evenodd" class="s0" d="m470.3 131.5c0-7.4 5.4-9 12.7-10.6c6-1.2 9.1-1.5 9.3-3.2v-0.4c0-1.9-1.7-3.7-6.2-3.7c-4.4 0-6.4 2.2-6.7 5.1v0.5h-8.4c0.2-7.4 6-12.3 15.2-12.3c8.8 0 14.2 3.9 14.2 12.7v20.5h-8.2v-4.4c-2.1 3.3-5.8 5.2-10.6 5.2c-7 0-11.3-3.8-11.3-9.4zm22-4.9v-2.7c-1.9 1.1-4.9 1.6-7.6 2.3c-3.3 0.8-5.8 1.9-5.8 4.8c0 2.2 1.7 3.8 4.7 3.8c4.1 0 8.5-2.1 8.7-8.2z"/>
			</g>
		</g>
	</g>
</svg>